<mxfile host="app.diagrams.net" modified="2022-12-26T00:10:18.298Z" agent="5.0 (Windows NT 10.0; Win64; x64) AppleWebKit/537.36 (KHTML, like Gecko) Chrome/108.0.0.0 Safari/537.36" version="20.7.4" etag="TsZ7t5oANXvz1Jhx0i2k" type="github">
  <diagram id="zOTPJ8DglZj9fyyTUVDR" name="Strona-1">
    <mxGraphModel dx="1434" dy="796" grid="1" gridSize="10" guides="1" tooltips="1" connect="1" arrows="1" fold="1" page="1" pageScale="1" pageWidth="1169" pageHeight="827" background="#ffffff" math="0" shadow="0">
      <root>
        <mxCell id="0" />
        <mxCell id="1" parent="0" />
        <mxCell id="ALLUctclk4UXSdhnqxAy-123" value="TRZYLATKI&lt;br&gt;CZTEROLATKI&lt;br&gt;PIĘCIOLATKI" style="text;strokeColor=#666666;fillColor=#f5f5f5;html=1;whiteSpace=wrap;verticalAlign=middle;overflow=hidden;fontColor=#333333;align=center;" vertex="1" parent="1">
          <mxGeometry x="30" y="240" width="90" height="60" as="geometry" />
        </mxCell>
        <mxCell id="ALLUctclk4UXSdhnqxAy-124" value="BRAK NAGRODY" style="whiteSpace=wrap;html=1;strokeColor=#b85450;fillColor=#f8cecc;fontSize=13;" vertex="1" parent="1">
          <mxGeometry x="15" y="320" width="120" height="60" as="geometry" />
        </mxCell>
        <mxCell id="ALLUctclk4UXSdhnqxAy-126" value="SZEŚCIOLATKI" style="text;strokeColor=#666666;fillColor=#f5f5f5;html=1;whiteSpace=wrap;verticalAlign=middle;overflow=hidden;fontColor=#333333;align=center;" vertex="1" parent="1">
          <mxGeometry x="180" y="250" width="90" height="30" as="geometry" />
        </mxCell>
        <mxCell id="ALLUctclk4UXSdhnqxAy-129" value="&lt;p style=&quot;line-height: 150%;&quot;&gt;DYPLOM&lt;br style=&quot;font-size: 13px;&quot;&gt;NAGRODA RZECZOWA&lt;/p&gt;" style="rounded=0;whiteSpace=wrap;html=1;strokeColor=#82b366;fillColor=#d5e8d4;fontSize=13;" vertex="1" parent="1">
          <mxGeometry x="160" y="320" width="150" height="60" as="geometry" />
        </mxCell>
        <mxCell id="ALLUctclk4UXSdhnqxAy-130" value="KLASA 1&lt;br&gt;KLASA 2" style="text;strokeColor=#666666;fillColor=#f5f5f5;html=1;whiteSpace=wrap;verticalAlign=middle;overflow=hidden;fontColor=#333333;align=center;" vertex="1" parent="1">
          <mxGeometry x="400" y="240" width="60" height="50" as="geometry" />
        </mxCell>
        <mxCell id="ALLUctclk4UXSdhnqxAy-131" value="&lt;div&gt;KLASA 3&lt;/div&gt;" style="text;strokeColor=#666666;fillColor=#f5f5f5;html=1;whiteSpace=wrap;verticalAlign=middle;overflow=hidden;fontColor=#333333;align=center;" vertex="1" parent="1">
          <mxGeometry x="555" y="250" width="60" height="30" as="geometry" />
        </mxCell>
        <mxCell id="ALLUctclk4UXSdhnqxAy-132" value="BRAK NAGRODY" style="whiteSpace=wrap;html=1;strokeColor=#b85450;fillColor=#f8cecc;fontSize=13;" vertex="1" parent="1">
          <mxGeometry x="360" y="400" width="120" height="60" as="geometry" />
        </mxCell>
        <mxCell id="ALLUctclk4UXSdhnqxAy-135" value="KLASA 4&lt;br&gt;KLASA 5&lt;br&gt;KLASA 6&lt;br&gt;KLASA 7" style="text;strokeColor=#666666;fillColor=#f5f5f5;html=1;whiteSpace=wrap;verticalAlign=middle;overflow=hidden;fontColor=#333333;align=center;" vertex="1" parent="1">
          <mxGeometry x="760" y="240" width="60" height="70" as="geometry" />
        </mxCell>
        <mxCell id="ALLUctclk4UXSdhnqxAy-136" value="KLASA 8" style="text;strokeColor=#666666;fillColor=#f5f5f5;html=1;whiteSpace=wrap;verticalAlign=middle;overflow=hidden;fontColor=#333333;align=center;" vertex="1" parent="1">
          <mxGeometry x="976.25" y="255" width="62.5" height="30" as="geometry" />
        </mxCell>
        <mxCell id="ALLUctclk4UXSdhnqxAy-94" value="PRZEDSZKOLE" style="whiteSpace=wrap;html=1;strokeColor=#0F0F0F;fillColor=#E6D0DE;fontStyle=1;fontSize=13;" vertex="1" parent="1">
          <mxGeometry x="90" y="190" width="120" height="40" as="geometry" />
        </mxCell>
        <mxCell id="ALLUctclk4UXSdhnqxAy-95" value="" style="edgeStyle=elbowEdgeStyle;elbow=vertical;html=1;rounded=0;" edge="1" parent="1" source="ALLUctclk4UXSdhnqxAy-93" target="ALLUctclk4UXSdhnqxAy-94">
          <mxGeometry relative="1" as="geometry" />
        </mxCell>
        <mxCell id="ALLUctclk4UXSdhnqxAy-107" value="KLASY 8" style="whiteSpace=wrap;html=1;strokeColor=#0F0F0F;fillColor=#E6D0DE;aspect=fixed;fontStyle=1;fontSize=13;" vertex="1" parent="1">
          <mxGeometry x="960" y="190" width="95" height="38" as="geometry" />
        </mxCell>
        <mxCell id="ALLUctclk4UXSdhnqxAy-108" value="" style="edgeStyle=elbowEdgeStyle;elbow=vertical;html=1;rounded=0;" edge="1" parent="1" source="ALLUctclk4UXSdhnqxAy-93" target="ALLUctclk4UXSdhnqxAy-107">
          <mxGeometry relative="1" as="geometry">
            <mxPoint x="947.5" y="120" as="sourcePoint" />
            <mxPoint x="807.5" y="170" as="targetPoint" />
          </mxGeometry>
        </mxCell>
        <mxCell id="ALLUctclk4UXSdhnqxAy-105" value="KLASY 4-7" style="whiteSpace=wrap;html=1;strokeColor=#0F0F0F;fillColor=#E6D0DE;fontStyle=1;fontSize=13;" vertex="1" parent="1">
          <mxGeometry x="740" y="190" width="100" height="40" as="geometry" />
        </mxCell>
        <mxCell id="ALLUctclk4UXSdhnqxAy-106" value="" style="edgeStyle=elbowEdgeStyle;elbow=vertical;html=1;rounded=0;" edge="1" parent="1" source="ALLUctclk4UXSdhnqxAy-93" target="ALLUctclk4UXSdhnqxAy-105">
          <mxGeometry relative="1" as="geometry">
            <mxPoint x="110" y="120" as="sourcePoint" />
            <mxPoint x="180" y="170" as="targetPoint" />
          </mxGeometry>
        </mxCell>
        <mxCell id="ALLUctclk4UXSdhnqxAy-96" value="KLASY 1-3" style="whiteSpace=wrap;html=1;strokeColor=#0F0F0F;fillColor=#E6D0DE;fontStyle=1;fontSize=13;" vertex="1" parent="1">
          <mxGeometry x="460" y="190" width="100" height="40" as="geometry" />
        </mxCell>
        <mxCell id="ALLUctclk4UXSdhnqxAy-97" value="" style="edgeStyle=elbowEdgeStyle;elbow=vertical;html=1;rounded=0;" edge="1" parent="1" source="ALLUctclk4UXSdhnqxAy-93" target="ALLUctclk4UXSdhnqxAy-96">
          <mxGeometry relative="1" as="geometry" />
        </mxCell>
        <mxCell id="ALLUctclk4UXSdhnqxAy-139" value="&lt;p style=&quot;line-height: 150%;&quot;&gt;DYPLOM&lt;br style=&quot;font-size: 13px;&quot;&gt;NAGRODA RZECZOWA&lt;/p&gt;" style="rounded=0;whiteSpace=wrap;html=1;strokeColor=#82b366;fillColor=#d5e8d4;fontSize=13;" vertex="1" parent="1">
          <mxGeometry x="520" y="400" width="150" height="60" as="geometry" />
        </mxCell>
        <mxCell id="ALLUctclk4UXSdhnqxAy-140" value="&lt;p style=&quot;line-height: 140%;&quot;&gt;DYPLOM UZNANIA&lt;br style=&quot;font-size: 13px;&quot;&gt;NAGRODA RZECZOWA&lt;/p&gt;" style="rounded=0;whiteSpace=wrap;html=1;strokeColor=#82b366;fillColor=#d5e8d4;fontSize=13;" vertex="1" parent="1">
          <mxGeometry x="715" y="400" width="150" height="60" as="geometry" />
        </mxCell>
        <mxCell id="ALLUctclk4UXSdhnqxAy-141" value="&lt;p style=&quot;line-height: 140%;&quot;&gt;NAGRODY RZECZOWE&lt;/p&gt;&lt;p style=&quot;line-height: 140%;&quot;&gt;STATUETKI&lt;/p&gt;&lt;p style=&quot;line-height: 140%;&quot;&gt;ZŁOTA KSIĘGA&lt;/p&gt;&lt;p style=&quot;line-height: 140%;&quot;&gt;ZŁOTA KSIĘGA SPORTOWCÓW&lt;/p&gt;" style="rounded=0;whiteSpace=wrap;html=1;strokeColor=#82b366;fillColor=#d5e8d4;fontSize=13;align=left;" vertex="1" parent="1">
          <mxGeometry x="930" y="400" width="210" height="140" as="geometry" />
        </mxCell>
        <mxCell id="ALLUctclk4UXSdhnqxAy-142" value="&lt;p style=&quot;line-height: 173%;&quot;&gt;&lt;font style=&quot;font-size: 13px;&quot;&gt;DYPLOM ZA 100% FERKWENCJĘ&lt;br&gt;NADZWYCZAJNY DYPLOM UZNANIA&lt;/font&gt;&lt;/p&gt;" style="rounded=0;whiteSpace=wrap;html=1;strokeColor=#82b366;fillColor=#d5e8d4;" vertex="1" parent="1">
          <mxGeometry x="360" y="320" width="780" height="50" as="geometry" />
        </mxCell>
        <mxCell id="ALLUctclk4UXSdhnqxAy-93" value="ROZKŁAD NAGRÓD" style="whiteSpace=wrap;html=1;strokeColor=#0F0F0F;fillColor=#E6D0DE;fontStyle=1;fontSize=14;" vertex="1" parent="1">
          <mxGeometry x="540" y="20" width="150" height="40" as="geometry" />
        </mxCell>
      </root>
    </mxGraphModel>
  </diagram>
</mxfile>
